<svg xmlns="http://www.w3.org/2000/svg" xmlns:xlink="http://www.w3.org/1999/xlink" id="Layer_1" x="0px" y="0px" viewBox="0 0 600 200" style="enable-background:new 0 0 600 200;" xml:space="preserve"><style type="text/css">	.st0{fill:#EA2347;}	.st1{fill:#504741;}</style><g>	<path class="st0" d="M173.8,66.6h-55.6c-3.5,0-6.3,2.8-6.3,6.3v15h15.4v-2.4c0-1.9,1.6-3.4,3.4-3.4h30.6c1.9,0,3.4,1.6,3.4,3.4v2.4  h15.4v-15C180.2,69.4,177.3,66.6,173.8,66.6z"></path>	<path class="st0" d="M164.7,114.6c0,1.9-1.6,3.4-3.4,3.4h-30.6c-1.9,0-3.4-1.6-3.4-3.4v-2.4h-15.3v15c0,3.5,2.8,6.3,6.3,6.3h55.6  c3.5,0,6.3-2.8,6.3-6.3v-15h-15.4V114.6L164.7,114.6z"></path>	<rect x="111.9" y="92.3" class="st0" width="15.4" height="15.4"></rect>	<rect x="164.7" y="92.3" class="st0" width="15.4" height="15.4"></rect>	<path class="st1" d="M488.1,113c0-2.4-2-4.4-4.3-4.4c-2.4,0-4.4,2-4.4,4.3c0,2.4,2,4.4,4.3,4.4l0,0  C486.1,117.3,488.1,115.3,488.1,113z M483.7,116.2c-1.8,0-3.3-1.5-3.3-3.3c0-1.8,1.5-3.3,3.3-3.3s3.3,1.5,3.3,3.3l0,0  C487,114.8,485.5,116.2,483.7,116.2z"></path>	<path class="st1" d="M485.4,112.1L485.4,112.1c0-0.4-0.1-0.7-0.4-1s-0.7-0.5-1.2-0.4h-1.6v4.2h0.9v-1.4h0.5l0.8,1.4h1l-0.9-1.6  C485.1,113.2,485.4,112.7,485.4,112.1z M484.5,112.1c0,0.3-0.2,0.6-0.5,0.6h-0.1h-0.6v-1.3h0.6  C484.2,111.5,484.5,111.7,484.5,112.1L484.5,112.1z"></path>	<path class="st1" d="M227.5,100.3v-0.6c0-10.3-6.7-17.7-15.9-17.7s-16,7.6-16,17.8v0.6c0,10.3,6.7,17.6,15.9,17.6  S227.5,110.5,227.5,100.3z M202.9,100.2v-0.4c0-6.5,3.4-11.3,8.5-11.3c5,0,8.6,4.9,8.6,11.4v0.4c0,6.5-3.4,11.4-8.5,11.4  C206.5,111.5,202.9,106.7,202.9,100.2z"></path>	<path class="st1" d="M262.7,100.4v-0.9c0-11.7-6.6-17.5-13.5-17.5c-4.9,0-8,2.9-10.1,6.2v-5.6h-7.4v44.5h7.4V112  c2.1,3.1,5.1,5.9,10.1,5.9C256.2,117.9,262.7,112.1,262.7,100.4z M238.9,100.3v-0.6c0-6.8,3.8-11.1,8.2-11.1  c4.5,0,8.1,4.2,8.1,11.2v0.6c0,7-3.5,11.1-8.1,11.1C242.6,111.5,238.9,107.1,238.9,100.3L238.9,100.3z"></path>	<path class="st1" d="M294.7,112.7l-3.8-4.6c-2.3,2.2-4.7,3.7-8,3.7c-4.5,0-8.1-3.1-8.8-8.9h21.7c0.1-1,0.1-2.1,0.1-2.6  c0-10.4-5-18.2-14.4-18.2c-8.5,0-14.8,7.4-14.8,17.8v0.5c0,10.9,7,17.6,15.8,17.6C287.2,118.1,291.6,116.1,294.7,112.7z   M281.4,88.2c4.3,0,6.8,4,7.2,9.5H274C274.5,91.8,277.4,88.2,281.4,88.2z"></path>	<path class="st1" d="M317.5,82c-4.7,0-7.5,2.7-9.5,5.8v-5.1h-7.4v34.7h7.4V96.3c0-4.8,2.7-7.7,6.6-7.7s6.2,2.7,6.2,7.5v21.1h7.4  V94.1C328.2,86.7,324.2,82,317.5,82z"></path>	<path class="st1" d="M358,107.4L358,107.4c0-5.5-4.1-8-9.4-10.4c-4.1-1.8-6.8-3.1-6.8-5.3v-0.2c0-1.9,1.6-3.4,4.4-3.4  c2.7,0,5.6,1.3,8.2,3.1l3.1-5.4c-3.3-2.3-7.2-3.7-11.3-3.8c-6.5,0-11.4,3.9-11.4,10.2v0.2c0,5.7,4.3,8.1,9.5,10.3  c4.1,1.7,6.8,2.9,6.8,5.4v0.1c0,2.2-1.8,3.8-4.9,3.8c-3.1,0-6.4-1.5-9.5-4.1l-3.4,5.3c3.6,3.1,8.1,4.8,12.9,4.9  C352.8,117.9,358,114.2,358,107.4z"></path>	<path class="st1" d="M380.9,116.3v-6.1c-1.3,0.6-2.6,1-4,0.9c-2.3,0-3.8-1.1-3.8-3.8V89h7.8v-6.3h-7.8v-9.3h-7.4v9.3h-3.8l1.3,6.3  h2.6v20c0,6.7,3.8,8.9,8.9,8.9C376.9,117.8,379,117.3,380.9,116.3z"></path>	<path class="st1" d="M409.1,85.8c-2.2-2.3-5.7-3.5-10.2-3.5c-4,0-7.9,0.9-11.4,2.7l2.1,5.9c2.6-1.3,5.5-2,8.4-2.1  c4.7,0,7.4,2.4,7.4,7v1.4c-2.6-0.9-5.2-1.4-8-1.4c-7.4,0-12.3,3.7-12.3,11.1v0.3c0,6.7,4.9,10.6,10.6,10.6c3.8,0.2,7.5-1.7,9.6-4.9  v4.2h7.3V95.8C412.6,91.5,411.5,88.1,409.1,85.8z M405.5,105.6c0,3.9-3.3,6.8-7.5,6.7c-3.2-0.1-5.6-2-5.6-5.5v-0.2  c0-3.7,2.5-5.8,6.7-5.8c2.2,0,4.4,0.4,6.4,1.3V105.6z"></path>	<path class="st1" d="M444,112.8l-4-4.9c-2,2-4.1,3.5-7,3.5c-5,0-8.6-4.5-8.6-11.3v-0.3c0-6.6,3.5-11.2,8.4-11.2  c3.1,0,5.2,1.6,7,3.4l4.1-5.4c-2.8-3.1-6.9-4.8-11.1-4.7c-9.1,0-15.8,7.4-15.8,17.8v0.6c0,10.3,6.6,17.6,15.6,17.6  C436.9,118.2,441.2,116.2,444,112.8z"></path>	<polygon class="st1" points="466.7,99.3 461.5,104.9 468.4,117.3 477,117.3  "></polygon>	<polygon class="st1" points="467.9,82.6 456.1,97.9 456.1,70.1 448.6,70.1 448.6,117.3 456.1,117.3 456.1,107.3 476.7,82.6  "></polygon></g></svg>